<svg xmlns="http://www.w3.org/2000/svg" xmlns:xlink="http://www.w3.org/1999/xlink" version="1.1" x="0px" y="0px" viewBox="-346 256 100 125" enable-background="new -346 256 100 100" xml:space="preserve"><g><path d="M-275.722,340.611c0.004-2.756-1.871-4.805-5.065-4.799h-57.968v-29.063H-346v49.244h0.016V356h7.277v-8.785h55.741V356   h7.264L-275.722,340.611z"/><path d="M-325.349,321.963v6.507h-7.879c-3.814,0.027-3.819,4.923,0,4.917h10.335c1.511,0.006,2.458-1.212,2.461-2.584v-8.84   C-320.436,318.257-325.344,318.257-325.349,321.963L-325.349,321.963z"/><path d="M-331.614,327.379c2.621-0.01,4.75-2.137,4.763-4.763c-0.013-2.625-2.142-4.754-4.763-4.759   c-2.631,0.005-4.76,2.134-4.755,4.759C-336.374,325.242-334.245,327.369-331.614,327.379L-331.614,327.379z"/><g><path d="M-263.809,276.758c2.378,0,6.267,0.996,8.433,3.369l-2.916,5.605c-1.278-1.649-3.271-2.706-5.519-2.706    c-2.219,0-4.19,1.034-5.467,2.651l-2.975-5.427C-269.747,277.743-266.283,276.758-263.809,276.758 M-264.652,282.406h1.668v-1.667    h1.665v-1.662h-1.665v-1.666h-1.668v1.666h-1.662v1.662h1.662V282.406z"/><path d="M-258.466,290.352c0,2.958-2.397,5.355-5.357,5.355c-2.959,0-5.351-2.397-5.351-5.355c0-2.959,2.392-5.356,5.351-5.356    C-260.863,284.995-258.466,287.393-258.466,290.352"/></g><path d="M-283.086,325.798l-9.49,0.001v-0.848c0.003-1.679-0.585-3.191-1.657-4.265c-1.135-1.137-2.725-1.737-4.622-1.737h-19.832   v14.521l35.6-0.007c2.107,0,3.826-1.715,3.834-3.826C-279.252,327.526-280.97,325.803-283.086,325.798z M-298.835,320.845   c1.363,0,2.49,0.406,3.261,1.18c0.725,0.726,1.105,1.735,1.104,2.925v1.944l-4.239-0.032l-6.378-6.017H-298.835z"/><path d="M-246.186,319.274l-5.175-17.014c-0.639-1.914-2.937-5.385-7.149-5.385h-10.189c-4.249,0-6.381,3.445-6.936,5.385   l-1.894,4.912l-6.442-4.852c-3.169-2.362-6.232,1.684-3.072,4.066l9.124,6.901l0.005-0.005c1.216,0.955,3.26,0.687,3.942-1.42   l2.554-6.602h1.687l-8.01,27.789h7.459l0.002,19.99c0,3.724,5.58,3.724,5.58,0l-0.003-20.135h2.265v20.163   c0,3.679,5.556,3.695,5.556,0V333.05h7.437l-8.071-27.789h1.942l4.658,15.622C-249.808,324.449-245.152,322.935-246.186,319.274z"/><polygon points="-284.635,298.688 -284.635,290.501 -285.835,290.501 -285.835,283.427 -286.807,283.427 -286.807,290.501    -288.034,290.501 -288.034,298.688 -289.653,298.688 -289.653,300.538 -283.016,300.538 -283.016,298.688  "/></g><text x="-346" y="371" fill="#000000" font-size="5px" font-weight="bold" font-family="'Helvetica Neue', Helvetica, Arial-Unicode, Arial, Sans-serif">Created by Luis Prado</text><text x="-346" y="376" fill="#000000" font-size="5px" font-weight="bold" font-family="'Helvetica Neue', Helvetica, Arial-Unicode, Arial, Sans-serif">from the Noun Project</text></svg>