<svg xmlns="http://www.w3.org/2000/svg" xmlns:xlink="http://www.w3.org/1999/xlink" version="1.1" x="0px" y="0px" viewBox="0 0 100 100" enable-background="new 0 0 100 100" xml:space="preserve"><path fill="#000000" d="M71.006,52.222L62.989,23.71c-0.414-1.473-1.758-2.491-3.288-2.491H45V25c2.984,2.016,4,4.016,4,8h-2v-1h1  c0-1.953-0.5-4.016-3-6h-1c-2.484,2.016-3,4.047-3,6h1v1h-2c0-4,1-5.984,4-8v-3.781h-3.701c-1.53,0-2.874,1.018-3.289,2.492  l-8.016,28.511c-0.511,1.816,0.548,3.703,2.364,4.213c1.816,0.511,3.702-0.547,4.213-2.363l4.636-16.491v52.641  c0,2.264,1.835,4.1,4.099,4.1s4.099-1.836,4.099-4.1V62.257h3.097v27.965c0,2.264,1.836,4.1,4.1,4.1s4.1-1.836,4.1-4.1V37.258  l4.728,16.813c0.424,1.507,1.794,2.492,3.286,2.492c0.306,0,0.617-0.042,0.927-0.129C70.459,55.924,71.517,54.038,71.006,52.222z   M58.143,27.38h-1.932v2.037H55.13V27.38h-1.932v-1.033h1.932v-2.018h1.081v2.018h1.932V27.38z"></path><g><path fill="#000000" d="M46.277,9C46.624,8.405,47.262,8,48,8s1.376,0.405,1.723,1h6.234c-1.291-1.941-3.497-3.221-6.003-3.221   c-2.506,0-4.711,1.281-6.003,3.221H46.277z"></path><path fill="#000000" d="M49.723,11c-0.346,0.595-0.984,1-1.723,1s-1.376-0.405-1.723-1h-3.246   c-0.181,0.631-0.283,1.296-0.283,1.985c0,3.98,3.227,7.207,7.207,7.207c3.98,0,7.207-3.227,7.207-7.207   c0-0.689-0.103-1.354-0.283-1.985H49.723z"></path></g></svg>