<svg xmlns="http://www.w3.org/2000/svg" xmlns:xlink="http://www.w3.org/1999/xlink" version="1.1" x="0px" y="0px" viewBox="0 0 50 62.5" enable-background="new 0 0 50 50" xml:space="preserve"><g><path fill-rule="evenodd" clip-rule="evenodd" fill="#000000" d="M15.471,14.021h26.983c2.089,0,3.803,1.768,3.803,3.859v11.725   h2.25v2.998c0,1.5-1.769,2.732-3.91,2.732h-2.143h-1.605c-0.161-2.092-1.928-3.75-4.015-3.75c-2.145,0-3.909,1.658-4.069,3.75   H17.13c-0.162-2.092-1.93-3.75-4.07-3.75c-2.089,0-3.854,1.658-4.018,3.75H6.954H5.402c-2.142,0-3.909-1.232-3.909-2.732v-0.32   c0-1.178,1.18-2.197,2.784-2.572l7.39-11.83C12.789,16.059,13.382,14.021,15.471,14.021L15.471,14.021z M36.834,32.014   c-1.928,0-3.481,1.555-3.481,3.482s1.554,3.479,3.481,3.479s3.479-1.551,3.479-3.479S38.762,32.014,36.834,32.014L36.834,32.014z    M13.272,32.283c-1.926,0-3.479,1.555-3.479,3.479c0,1.928,1.554,3.48,3.479,3.48c1.928,0,3.481-1.553,3.481-3.48   C16.754,33.838,15.2,32.283,13.272,32.283L13.272,32.283z M24.678,24.895v2.623h-2.623V29.5h2.623v2.674h2.035V29.5h2.624v-1.982   h-2.624v-2.623H24.678L24.678,24.895z M19.27,10.758h3.481c0.694,0,1.284,0.268,1.284,0.59v1.604c0,0.322-0.59,0.592-1.284,0.592   H19.27c-0.695,0-1.286-0.27-1.286-0.592v-1.604C17.983,11.025,18.574,10.758,19.27,10.758L19.27,10.758z M16.859,17.662   c-0.804,0-1.443,0.967-1.443,2.037v1.445c0,1.127,0.64,2.035,1.443,2.035h3.428c0.803,0,1.5-0.908,1.5-2.035v-1.445   c0-1.07-0.697-2.037-1.5-2.037H16.859L16.859,17.662z M26.339,17.662c-0.909,0-1.661,0.967-1.661,2.037v1.445   c0,1.127,0.752,2.035,1.661,2.035h3.854c0.965,0,1.713-0.908,1.713-2.035v-1.445c0-1.07-0.748-2.037-1.713-2.037H26.339   L26.339,17.662z M35.924,17.662c-1.072,0-1.983,0.967-1.983,2.037v1.445c0,1.127,0.911,2.035,1.983,2.035h4.657   c1.122,0,2.035-0.908,2.035-2.035v-1.445c0-1.07-0.913-2.037-2.035-2.037H35.924z"/></g><text x="0" y="65" fill="#000000" font-size="5px" font-weight="bold" font-family="'Helvetica Neue', Helvetica, Arial-Unicode, Arial, Sans-serif">Created by Mister Pixel</text><text x="0" y="70" fill="#000000" font-size="5px" font-weight="bold" font-family="'Helvetica Neue', Helvetica, Arial-Unicode, Arial, Sans-serif">from the Noun Project</text></svg>