<svg xmlns="http://www.w3.org/2000/svg" xmlns:xlink="http://www.w3.org/1999/xlink" version="1.1" x="0px" y="0px" viewBox="-345 257 100 125" style="enable-background:new -345 257 100 100;" xml:space="preserve"><style type="text/css">
	.st0{fill:none;}
</style><g><polygon class="st0" points="-295.8,315.2 -295.8,350.3 -293.8,350.3 -293.8,315.2  "/><circle cx="-295.3" cy="268.1" r="7.9"/></g><g><path d="M-287.9,277.6h-1.7l-5.2,7.2l-0.2-0.3c-0.2-0.3-3.8-5.4-4.9-6.9h-2c-0.3,0.8-0.4,1.6-0.4,2.5c0,4.1,3.3,7.4,7.4,7.4   s7.4-3.3,7.4-7.4C-287.4,279.3-287.6,278.4-287.9,277.6z"/></g><g><path d="M-312.8,312c0,4.7,6.2,4.7,6.2,0v-18.1h-6.2V312z"/><path d="M-286.1,277.6h-1.2c0.3,0.8,0.4,1.6,0.4,2.5c0,4.2-3.3,7.7-7.4,8v5.7c0.9,0.3,1.6,1.1,1.6,2.1c0,1.2-1,2.2-2.2,2.2   s-2.2-1-2.2-2.2c0-1,0.7-1.8,1.5-2.1v-5.7c-4.1-0.3-7.4-3.8-7.4-8c0-0.9,0.1-1.7,0.4-2.5h-1.2c-5.6,0-9.7,4.5-9.7,10.2v5.6h7.8v-5   h1v17.4l0,0h19.6l0,0v-17.4h0.9v5h7.6v-5.5C-276.4,282.8-280,277.6-286.1,277.6z"/><path d="M-283.1,312c0,4.7,6.2,4.7,6.1,0v-18.1h-6.1V312z"/></g><path d="M-285,306.3h-19.6l0,0v44h1.4v0.3c0,1.7,1.4,3.2,3.2,3.2c1.7,0,3.2-1.4,3.2-3.2v-0.3h1.1v-35.1h2v35.1h1v0.3  c0,1.7,1.4,3.2,3.2,3.2s3.2-1.4,3.2-3.2v-0.3h1.5L-285,306.3z"/><text x="-345" y="372" fill="#000000" font-size="5px" font-weight="bold" font-family="'Helvetica Neue', Helvetica, Arial-Unicode, Arial, Sans-serif">Created by Abraham</text><text x="-345" y="377" fill="#000000" font-size="5px" font-weight="bold" font-family="'Helvetica Neue', Helvetica, Arial-Unicode, Arial, Sans-serif">from the Noun Project</text></svg>